<?xml version="1.0" encoding="UTF-8" standalone="no"?>
<svg
   xmlns:dc="http://purl.org/dc/elements/1.1/"
   xmlns:cc="http://creativecommons.org/ns#"
   xmlns:rdf="http://www.w3.org/1999/02/22-rdf-syntax-ns#"
   xmlns:svg="http://www.w3.org/2000/svg"
   xmlns="http://www.w3.org/2000/svg"
   id="svg36"
   xml:space="preserve"
   style="enable-background:new 0 0 360 360;"
   viewBox="0 0 360 360"
   y="0px"
   x="0px"
   version="1.1"><metadata
   id="metadata42"><rdf:RDF><cc:Work
       rdf:about=""><dc:format>image/svg+xml</dc:format><dc:type
         rdf:resource="http://purl.org/dc/dcmitype/StillImage" /><dc:title></dc:title></cc:Work></rdf:RDF></metadata><defs
   id="defs40" />
<style
   id="style10"
   type="text/css">
	.st0{fill:#29ABE2;}
	.st1{fill:#FFFFFF;}
</style>
<g
   id="Layer_1">
	<rect
   id="rect12"
   height="360"
   width="360"
   class="st0" />
</g>
<g
   id="Layer_2">
	<g
   id="g31">
		<g
   id="g27">
			<path
   id="path15"
   d="M175.9,237.1c-1.5,0.2-3.2,0.5-4.9,0.9c0-0.6,0-1.2,0-1.7c-1,0.9-2.1,1.7-3.5,1.7c-2.1,0-3.4-1.4-3.4-3.7     V229c0-1.2-0.2-1.3-0.8-1.5l-0.5-0.2v-0.8c1.3-0.1,3.3-0.2,4.8-0.4c-0.1,1.1-0.1,2.4-0.1,3.9v3.7c0,1.7,0.8,2.2,1.7,2.2     c0.7,0,1.3-0.2,1.8-0.7v-6.2c0-1.2-0.1-1.4-0.8-1.5l-0.8-0.2v-0.8c1.5-0.1,3.7-0.2,4.9-0.4v8.3c0,1.3,0.2,1.6,1,1.7l0.6,0.1     V237.1z"
   class="st1" />
			<path
   id="path17"
   d="M185.6,238c-0.7,0-1.3-0.2-1.6-0.5c-0.4-0.3-0.5-0.7-0.7-0.9c-1,0.6-2.2,1.5-2.7,1.5c-2.2,0-3.5-1.7-3.5-3.3     c0-1.4,0.6-2,2-2.5c1.5-0.6,3.5-1.2,4.1-1.7v-1.1c0-1.3-0.5-2.1-1.6-2.1c-0.4,0-0.8,0.2-1,0.5c-0.3,0.4-0.4,0.9-0.6,1.7     c-0.2,0.7-0.6,0.9-1.1,0.9c-0.7,0-1.5-0.6-1.5-1.3c0-0.5,0.3-0.8,0.9-1.2c1.2-0.8,2.7-1.5,4.1-1.8c1,0,1.9,0.2,2.6,0.7     c1.1,0.8,1.4,1.8,1.4,3.1c0,1.3,0,3.2,0,4.4c0,1.2,0.4,1.5,0.8,1.5c0.3,0,0.5-0.1,0.8-0.2l0.3,0.9L185.6,238z M183.3,231.5     c-0.5,0.3-0.9,0.5-1.4,0.8c-0.8,0.4-1.3,0.9-1.3,1.7c0,1.4,1,1.9,1.6,1.9c0.4,0,0.7,0,1.1-0.4     C183.3,234.4,183.3,232.7,183.3,231.5z"
   class="st1" />
			<path
   id="path19"
   d="M188.9,237.7v-0.9c1.5-0.2,1.5-0.4,1.5-2v-11.6c0-1.3-0.2-1.5-1.5-1.8v-0.8c1.8-0.2,3.6-0.5,4.8-0.9     c0,1.2,0,2.3,0,3.5v11.6c0,1.7,0.1,1.8,1.5,2v0.9H188.9z"
   class="st1" />
			<path
   id="path21"
   d="M196.5,237.7v-0.9c1.4-0.2,1.5-0.3,1.5-2.1v-5c0-1.7-0.1-1.8-1.3-2v-0.8c1.6-0.2,3.2-0.5,4.6-0.9     c0,1.1,0,2.1,0,3.2v5.6c0,1.7,0.1,1.9,1.6,2.1v0.9H196.5z M199.5,224.4c-1,0-1.8-0.8-1.8-1.8c0-1,0.9-1.8,1.9-1.8     c1,0,1.8,0.8,1.8,1.8C201.3,223.6,200.5,224.4,199.5,224.4z"
   class="st1" />
			<path
   id="path23"
   d="M209.4,237.7c-0.4,0.2-0.8,0.3-1,0.3c-2,0-3.1-0.9-3.1-3.2v-7.1h-1.6l-0.2-0.3l0.7-1h1v-2.1     c0.9-0.6,2.1-1.4,3-2l0.3,0.2c0,0.7-0.1,2-0.1,4h2.6c0.2,0.3,0.1,1-0.2,1.3h-2.4v6.3c0,2,0.8,2.2,1.3,2.2c0.4,0,0.8-0.1,1.2-0.3     l0.3,0.9L209.4,237.7z"
   class="st1" />
			<path
   id="path25"
   d="M224.8,227.2c-1.2,0.2-1.5,0.4-2.1,1.8c-0.6,1.3-1.4,3.3-2.8,6.8c-1.7,4.1-2.2,5.8-2.7,7.3     c-0.2,0.6-0.5,0.7-0.9,0.7c-1,0-2-0.7-2-1.6c0-0.4,0.2-0.6,0.7-0.9c1-0.6,1.7-1,2.1-1.8c0.3-0.4,0.5-1.1,0.6-1.4     c0.1-0.4,0.1-0.6-0.1-1c-1.3-3.7-3-7.2-3.4-8.3c-0.5-1.1-0.8-1.4-2-1.6v-0.9h6.4v0.9c-1.1,0.2-1.3,0.4-1,1.2l2,5.4     c0.6-1.4,1.5-3.8,1.9-5.2c0.3-0.8-0.1-1.2-1.4-1.4v-0.9h4.7V227.2z"
   class="st1" />
		</g>
		<path
   id="path29"
   d="M163.9,237.9c-2.5-0.4-3.7-1.9-4.4-3.9c0.8-1.3,1.3-3,1.3-4.9c0-5-3.9-8.5-8.6-8.5c-5.8,0-9,4.3-9,8.7    c0,4.9,3.7,8.7,8.8,8.7c1.9,0,3.6-0.5,5-1.4C158.7,237.8,160.9,238.3,163.9,237.9z M152.5,236.9c-3.5,0-5.2-3.7-5.2-8    c0-4.5,1.9-7.1,4.5-7.1c3,0,5,3,5,8.1C156.8,234.6,154.9,236.9,152.5,236.9z"
   class="st1" />
	</g>
	<path
   id="path33"
   d="M210.4,197.3c7.8-7.2,13-18.1,13-32.6c0-57.7-82.8-57.7-82.8,0c0,38.6,36.8,51.4,61.3,38.6   c5,4,12,5.6,21.5,4.4C216.4,206.7,212.6,202.7,210.4,197.3z M181.7,178.5c-10.1,0-17.2-9.1-18.7-21c-1.3-0.5-2.1-1.7-2.1-3.1   c0-1.9,1.5-3.4,3.4-3.4c1.9,0,3.4,1.5,3.4,3.4c0,1.4-0.9,2.7-2.1,3.2c1.5,10.2,7.5,17.9,16.2,17.9c8.8,0,14.8-7.8,16.3-18.1   c-1-0.6-1.7-1.7-1.7-2.9c0-1.9,1.5-3.4,3.4-3.4c1.9,0,3.4,1.5,3.4,3.4c0,1.6-1.1,3-2.7,3.3C198.8,169.5,191.7,178.5,181.7,178.5z"
   class="st1" />
</g>
</svg>
