<?xml version="1.0" encoding="UTF-8"?>
<svg width="210mm" height="297mm" version="1.1" viewBox="0 0 210 297" xmlns="http://www.w3.org/2000/svg" xmlns:cc="http://creativecommons.org/ns#" xmlns:dc="http://purl.org/dc/elements/1.1/" xmlns:rdf="http://www.w3.org/1999/02/22-rdf-syntax-ns#">
 <metadata>
  <rdf:RDF>
   <cc:Work rdf:about="">
    <dc:format>image/svg+xml</dc:format>
    <dc:type rdf:resource="http://purl.org/dc/dcmitype/StillImage"/>
    <dc:title/>
   </cc:Work>
  </rdf:RDF>
 </metadata>
 <g transform="matrix(1.173 0 0 1.173 -144.32 -52.793)" fill="#29abe2">
  <path class="st1" d="m175.9 237.1c-1.5 0.2-3.2 0.5-4.9 0.9v-1.7c-1 0.9-2.1 1.7-3.5 1.7-2.1 0-3.4-1.4-3.4-3.7v-5.3c0-1.2-0.2-1.3-0.8-1.5l-0.5-0.2v-0.8c1.3-0.1 3.3-0.2 4.8-0.4-0.1 1.1-0.1 2.4-0.1 3.9v3.7c0 1.7 0.8 2.2 1.7 2.2 0.7 0 1.3-0.2 1.8-0.7v-6.2c0-1.2-0.1-1.4-0.8-1.5l-0.8-0.2v-0.8c1.5-0.1 3.7-0.2 4.9-0.4v8.3c0 1.3 0.2 1.6 1 1.7l0.6 0.1z"/>
  <path class="st1" d="m185.6 238c-0.7 0-1.3-0.2-1.6-0.5-0.4-0.3-0.5-0.7-0.7-0.9-1 0.6-2.2 1.5-2.7 1.5-2.2 0-3.5-1.7-3.5-3.3 0-1.4 0.6-2 2-2.5 1.5-0.6 3.5-1.2 4.1-1.7v-1.1c0-1.3-0.5-2.1-1.6-2.1-0.4 0-0.8 0.2-1 0.5-0.3 0.4-0.4 0.9-0.6 1.7-0.2 0.7-0.6 0.9-1.1 0.9-0.7 0-1.5-0.6-1.5-1.3 0-0.5 0.3-0.8 0.9-1.2 1.2-0.8 2.7-1.5 4.1-1.8 1 0 1.9 0.2 2.6 0.7 1.1 0.8 1.4 1.8 1.4 3.1v4.4c0 1.2 0.4 1.5 0.8 1.5 0.3 0 0.5-0.1 0.8-0.2l0.3 0.9zm-2.3-6.5c-0.5 0.3-0.9 0.5-1.4 0.8-0.8 0.4-1.3 0.9-1.3 1.7 0 1.4 1 1.9 1.6 1.9 0.4 0 0.7 0 1.1-0.4v-4z"/>
  <path class="st1" d="m188.9 237.7v-0.9c1.5-0.2 1.5-0.4 1.5-2v-11.6c0-1.3-0.2-1.5-1.5-1.8v-0.8c1.8-0.2 3.6-0.5 4.8-0.9v3.5 11.6c0 1.7 0.1 1.8 1.5 2v0.9z"/>
  <path class="st1" d="m196.5 237.7v-0.9c1.4-0.2 1.5-0.3 1.5-2.1v-5c0-1.7-0.1-1.8-1.3-2v-0.8c1.6-0.2 3.2-0.5 4.6-0.9v3.2 5.6c0 1.7 0.1 1.9 1.6 2.1v0.9h-6.4zm3-13.3c-1 0-1.8-0.8-1.8-1.8s0.9-1.8 1.9-1.8 1.8 0.8 1.8 1.8c-0.1 1-0.9 1.8-1.9 1.8z"/>
  <path class="st1" d="m209.4 237.7c-0.4 0.2-0.8 0.3-1 0.3-2 0-3.1-0.9-3.1-3.2v-7.1h-1.6l-0.2-0.3 0.7-1h1v-2.1l3-2 0.3 0.2c0 0.7-0.1 2-0.1 4h2.6c0.2 0.3 0.1 1-0.2 1.3h-2.4v6.3c0 2 0.8 2.2 1.3 2.2 0.4 0 0.8-0.1 1.2-0.3l0.3 0.9z"/>
  <path class="st1" d="m224.8 227.2c-1.2 0.2-1.5 0.4-2.1 1.8-0.6 1.3-1.4 3.3-2.8 6.8-1.7 4.1-2.2 5.8-2.7 7.3-0.2 0.6-0.5 0.7-0.9 0.7-1 0-2-0.7-2-1.6 0-0.4 0.2-0.6 0.7-0.9 1-0.6 1.7-1 2.1-1.8 0.3-0.4 0.5-1.1 0.6-1.4 0.1-0.4 0.1-0.6-0.1-1-1.3-3.7-3-7.2-3.4-8.3-0.5-1.1-0.8-1.4-2-1.6v-0.9h6.4v0.9c-1.1 0.2-1.3 0.4-1 1.2l2 5.4c0.6-1.4 1.5-3.8 1.9-5.2 0.3-0.8-0.1-1.2-1.4-1.4v-0.9h4.7z"/>
  <path class="st1" d="m163.9 237.9c-2.5-0.4-3.7-1.9-4.4-3.9 0.8-1.3 1.3-3 1.3-4.9 0-5-3.9-8.5-8.6-8.5-5.8 0-9 4.3-9 8.7 0 4.9 3.7 8.7 8.8 8.7 1.9 0 3.6-0.5 5-1.4 1.7 1.2 3.9 1.7 6.9 1.3zm-11.4-1c-3.5 0-5.2-3.7-5.2-8 0-4.5 1.9-7.1 4.5-7.1 3 0 5 3 5 8.1 0 4.7-1.9 7-4.3 7z"/>
  <path class="st1" d="m210.4 197.3c7.8-7.2 13-18.1 13-32.6 0-57.7-82.8-57.7-82.8 0 0 38.6 36.8 51.4 61.3 38.6 5 4 12 5.6 21.5 4.4-7-1-10.8-5-13-10.4zm-28.7-18.8c-10.1 0-17.2-9.1-18.7-21-1.3-0.5-2.1-1.7-2.1-3.1 0-1.9 1.5-3.4 3.4-3.4s3.4 1.5 3.4 3.4c0 1.4-0.9 2.7-2.1 3.2 1.5 10.2 7.5 17.9 16.2 17.9 8.8 0 14.8-7.8 16.3-18.1-1-0.6-1.7-1.7-1.7-2.9 0-1.9 1.5-3.4 3.4-3.4s3.4 1.5 3.4 3.4c0 1.6-1.1 3-2.7 3.3-1.7 11.7-8.8 20.7-18.8 20.7z"/>
 </g>
</svg>
